<?xml version="1.0" standalone="no"?>
<!DOCTYPE svg PUBLIC "-//W3C//DTD SVG 20010904//EN"
 "http://www.w3.org/TR/2001/REC-SVG-20010904/DTD/svg10.dtd">
<svg version="1.0" xmlns="http://www.w3.org/2000/svg"
 width="260.000000pt" height="260.000000pt" viewBox="0 0 260.000000 260.000000"
 preserveAspectRatio="xMidYMid meet">
<metadata>
Created by potrace 1.14, written by Peter Selinger 2001-2017
</metadata>
<g transform="translate(0.000000,260.000000) scale(0.100000,-0.100000)"
fill="#000000" stroke="none">
<path d="M505 2575 c-5 -2 -22 -6 -37 -9 -15 -4 -43 -20 -63 -37 -91 -81 -94
-218 -4 -293 63 -54 122 -62 213 -32 36 13 66 19 66 15 0 -21 -42 -182 -63
-244 -25 -72 -78 -206 -102 -260 -31 -69 -84 -205 -108 -280 -52 -158 -71
-287 -70 -480 0 -112 4 -143 27 -220 51 -171 119 -288 231 -399 82 -81 154
-129 273 -182 1 0 -4 -16 -12 -35 -14 -36 -13 -67 4 -100 10 -19 24 -19 443
-17 l431 3 12 40 c8 32 8 47 -3 74 -8 18 -13 34 -11 35 2 1 21 10 43 20 65 29
166 101 224 158 206 203 295 478 257 794 -24 200 -53 298 -172 586 -100 241
-147 381 -160 477 l-6 41 49 -21 c119 -52 254 0 288 110 31 103 -29 218 -130
246 -134 38 -260 -34 -321 -183 -13 -31 -24 -67 -24 -79 0 -21 -5 -23 -54 -23
l-54 0 0 43 c1 82 -1 87 -31 68 -8 -5 -13 -28 -14 -60 l0 -51 -64 0 -63 0 0
54 c0 36 -4 56 -13 59 -18 7 -39 -7 -37 -24 1 -8 2 -31 1 -51 l-1 -38 -63 0
-63 0 -1 51 c-3 91 -46 92 -48 2 l0 -48 -66 -3 -65 -3 3 44 c3 47 -16 85 -35
73 -7 -4 -12 -31 -12 -62 l0 -54 -65 0 -65 0 0 54 c0 41 -4 55 -16 60 -23 9
-27 3 -30 -51 -1 -27 -3 -51 -3 -55 -1 -5 -23 -8 -49 -8 l-49 0 -17 60 c-37
137 -128 224 -242 233 -27 3 -53 3 -59 2z m417 -424 c2 -9 3 -367 3 -796 -1
-896 11 -807 -107 -729 -120 80 -225 220 -257 344 -54 209 -25 391 116 750 77
194 121 321 129 370 4 19 7 40 8 45 4 25 19 33 60 32 32 0 46 -5 48 -16z m176
-818 c2 -664 0 -832 -10 -828 -7 2 -37 11 -65 20 l-53 17 0 812 0 813 63 -1
62 -1 3 -832z m174 818 c2 -9 3 -387 3 -841 l-1 -825 -59 2 c-32 2 -61 7 -64
12 -5 7 -6 1632 -2 1662 1 4 28 6 60 6 45 -1 61 -5 63 -16z m178 -5 c2 -120 0
-1649 -2 -1651 -2 -2 -30 -6 -64 -10 l-61 -6 2 843 c1 464 2 843 3 843 1 1 29
1 62 1 54 0 60 -2 60 -20z m178 -788 c0 -586 -4 -810 -12 -817 -6 -4 -35 -15
-63 -24 l-53 -15 0 94 c-1 52 -1 384 -1 739 0 355 0 687 1 738 l0 92 64 1 64
0 0 -808z m158 762 c9 -60 62 -221 134 -401 60 -148 105 -279 115 -334 21
-108 25 -148 26 -215 1 -194 -60 -343 -191 -469 -52 -50 -138 -110 -180 -126
-14 -5 -16 75 -14 787 0 436 2 795 3 798 0 3 23 6 51 6 l49 0 7 -46z"/>
</g>
</svg>
